<?xml version="1.0" encoding="utf-8"?><!-- Uploaded to: SVG Repo, www.svgrepo.com, Generator: SVG Repo Mixer Tools -->
<svg width="800px" height="800px" viewBox="0 0 24 24" xmlns="http://www.w3.org/2000/svg" id="bag-alt-1" class="icon glyph"><path d="M21.76,8.35A1,1,0,0,0,21,8H3A1,1,0,0,0,2,9.16L3.87,20.33a2,2,0,0,0,2,1.67h12.3a2,2,0,0,0,2-1.67L22,9.16A1,1,0,0,0,21.76,8.35ZM9,17a1,1,0,0,1-2,0V13a1,1,0,0,1,2,0Zm4,0a1,1,0,0,1-2,0V13a1,1,0,0,1,2,0Zm4,0a1,1,0,0,1-2,0V13a1,1,0,0,1,2,0ZM8.72,7H6.61L8.05,2.68a1,1,0,1,1,1.9.64Zm5.33-3.68A1,1,0,0,1,16,2.68L17.39,7H15.28Z" style="fill:#a3a3a3"></path></svg>